# xmcd
#
# Track frame offsets:
#	150
#	19302
#	33213
#	50964
#	69798
#	85670
#	102513
#	118421
#	134273
#	149184
#	166776
#	180068
#	194968
#	206906
#
# Disc length: 3080
#
# Revision: 1
# Processed by: cddbd v1.5.1PL0 Copyright (c) Steve Scherf et al.
# Submitted via: VisiTrax 2.9.5.180 - For more info visit www.synapsa.com
# Normalized: r0:DSETVAR1
#
DISCID=d30c060e
DTITLE=Various Artist - Mr Music Country 6-03
DYEAR=2003
DGENRE=Country
TTITLE0=Travis Tritt - Country A'int Country
TTITLE1=Pam Tillis - Burning Memories
TTITLE2=Lynn Stokes - Legend Of The Rebel Soldier
TTITLE3=Montgomery Gentry - Lie Before You Leave
TTITLE4=Johnny Cash - Engine 143
TTITLE5=Charlie Robison - Don't Take Your Guns To Town
TTITLE6=Tammy Cochran - If You Can
TTITLE7=John Anderson - I A'int Afraid of Dying
TTITLE8=Shayne Weems - The Crystal Pistol Cocktail Lounge
TTITLE9=R.B. Stone - Mr. Pain
TTITLE10=Susanna van Tassel - Closing Time
TTITLE11=Hillbilly Connexion with Tom Road - Motorcycle
TTITLE12=Brad Martin - Damn The Whiskey
TTITLE13=Dawn Sears - Sweet Memories
EXTD=
EXTT0=
EXTT1=
EXTT2=
EXTT3=
EXTT4=
EXTT5=
EXTT6=
EXTT7=
EXTT8=
EXTT9=
EXTT10=
EXTT11=
EXTT12=
EXTT13=
PLAYORDER=
